<svg viewBox="0 0 764 488" role="img" lang="en" aria-labelledby="kure-v2-training-archify-diagram-title kure-v2-training-archify-diagram-description" data-preset="classic" data-quality-profile="showcase">
        <title id="kure-v2-training-archify-diagram-title">KURE-v2 학습: 약지도 사전 파인튜닝(PFT) 뒤 지도 파인튜닝(SFT)</title>
        <desc id="kure-v2-training-archify-diagram-description">An architecture diagram generated by Archify.</desc>
        <!-- Definitions -->
        <defs>
          <marker id="kure-v2-training-arrowhead" markerWidth="10" markerHeight="7" refX="9" refY="3.5" orient="auto">
            <polygon points="0 0, 10 3.5, 0 7" class="m-default" />
          </marker>
          <marker id="kure-v2-training-arrowhead-emphasis" markerWidth="10" markerHeight="7" refX="9" refY="3.5" orient="auto">
            <polygon points="0 0, 10 3.5, 0 7" class="m-emphasis" />
          </marker>
          <marker id="kure-v2-training-arrowhead-security" markerWidth="10" markerHeight="7" refX="9" refY="3.5" orient="auto">
            <polygon points="0 0, 10 3.5, 0 7" class="m-security" />
          </marker>
          <marker id="kure-v2-training-arrowhead-dashed" markerWidth="10" markerHeight="7" refX="9" refY="3.5" orient="auto">
            <polygon points="0 0, 10 3.5, 0 7" class="m-dashed" />
          </marker>
          <pattern id="kure-v2-training-grid" width="40" height="40" patternUnits="userSpaceOnUse">
            <path d="M 40 0 L 0 0 0 40" class="c-grid" stroke-width="0.5"/>
          </pattern>
        </defs>

        <!-- Background Grid -->
        <rect width="100%" height="100%" fill="url(#kure-v2-training-grid)" />

        <!-- Boundaries (behind everything) -->
        <rect data-graph-role="structural-frame" data-composition-frame-kind="region" data-composition-frame-id="0" data-composition-frame-label="1단계 PFT" x="24" y="56" width="700" height="108" rx="12" class="c-region" stroke-width="1"/>

        <rect data-graph-role="structural-frame" data-composition-frame-kind="region" data-composition-frame-id="1" data-composition-frame-label="2단계 SFT" x="24" y="184" width="700" height="236" rx="12" class="c-region" stroke-width="1"/>

        <!-- Connection paths (before components for correct z-order) -->
        <path data-edge-from="pft_data" data-edge-to="pft_train" data-edge-key="0" data-composition-points="228,112;280,112" d="M 228 112 L 280 112" class="a-default" stroke-width="1.5" marker-end="url(#kure-v2-training-arrowhead)"/>
        <path data-edge-from="pft_train" data-edge-to="unsup" data-edge-key="1" data-composition-points="468,105;520,105" d="M 468 105 L 520 105" class="a-emphasis" stroke-width="1.8" marker-end="url(#kure-v2-training-arrowhead-emphasis)"/>
        <path data-edge-from="unsup" data-edge-to="sft_train" data-edge-label="초기 가중치" data-edge-key="2" data-composition-points="520,119;494,119;494,237;468,237" d="M 520 119 L 502 119 Q 494 119 494 127 L 494 229 Q 494 237 486 237 L 468 237" class="a-emphasis" stroke-width="1.8" marker-end="url(#kure-v2-training-arrowhead-emphasis)"/>
        <path data-edge-from="sft_data" data-edge-to="sft_train" data-edge-key="3" data-composition-points="228,237;280,237" d="M 228 237 L 280 237" class="a-default" stroke-width="1.5" marker-end="url(#kure-v2-training-arrowhead)"/>
        <path data-edge-from="sft_train" data-edge-to="kure" data-edge-key="4" data-composition-points="468,251;520,251" d="M 468 251 L 520 251" class="a-emphasis" stroke-width="1.8" marker-end="url(#kure-v2-training-arrowhead-emphasis)"/>
        <path data-edge-from="ko_relabel" data-edge-to="sft_data" data-edge-key="5" data-composition-points="134,336;134,280" d="M 134 336 L 134 280" class="a-default" stroke-width="1.5" marker-end="url(#kure-v2-training-arrowhead)"/>
        <path data-edge-from="reranker" data-edge-to="sft_data" data-edge-label="위음성 필터" data-edge-key="6" data-composition-points="280,368;254,368;254,251;228,251" d="M 280 368 L 262 368 Q 254 368 254 360 L 254 259 Q 254 251 246 251 L 228 251" class="a-dashed" stroke-width="1.5" marker-end="url(#kure-v2-training-arrowhead-dashed)"/>
        <path data-edge-from="reranker" data-edge-to="sft_train" data-edge-label="KL 증류" data-edge-key="7" data-composition-points="374,336;374,280" d="M 374 336 L 374 280" class="a-dashed" stroke-width="1.5" marker-end="url(#kure-v2-training-arrowhead-dashed)"/>

        <!-- Components -->
        <g id="kure-v2-training-node-pft_data" data-node-id="pft_data" data-node-label="한·영 약지도 쌍" tabindex="0" role="button" aria-label="Focus 한·영 약지도 쌍, 약 2,070만 쌍, 1단계 PFT" aria-pressed="false" data-node-kind="database" data-node-sublabel="약 2,070만 쌍" data-node-context="1단계 PFT">
          <title>한·영 약지도 쌍 · 약 2,070만 쌍 · 1단계 PFT</title>
          <rect x="40" y="80" width="188" height="64" rx="6" class="c-mask"/>
          <rect x="40" y="80" width="188" height="64" rx="6" class="c-database" stroke-width="1.5"/>
          <g aria-hidden="true" data-semantic-sigil="database" class="semantic-sigil s-database" transform="translate(46 86) scale(0.6875)">
            <ellipse cx="8" cy="4" rx="5" ry="2"/>
            <path d="M3 4v8c0 1.1 2.2 2 5 2s5-.9 5-2V4M3 8c0 1.1 2.2 2 5 2s5-.9 5-2"/>
          </g>
          <text data-node-label="" data-detail-anchor="" x="134" y="110" class="t-primary" font-size="11" font-weight="600" text-anchor="middle">한·영 약지도 쌍</text>
        <text data-detail="context" x="134" y="126" class="t-muted" font-size="9" text-anchor="middle">약 2,070만 쌍</text>
        </g>

        <g id="kure-v2-training-node-pft_train" data-node-id="pft_train" data-node-label="PFT · InfoNCE" tabindex="0" role="button" aria-label="Focus PFT · InfoNCE, 단일 언어 배치 16,384, 1단계 PFT" aria-pressed="false" data-node-kind="backend" data-node-sublabel="단일 언어 배치 16,384" data-node-context="1단계 PFT">
          <title>PFT · InfoNCE · 단일 언어 배치 16,384 · 1단계 PFT</title>
          <rect x="280" y="80" width="188" height="64" rx="6" class="c-mask"/>
          <rect x="280" y="80" width="188" height="64" rx="6" class="c-backend" stroke-width="1.5"/>
          <g aria-hidden="true" data-semantic-sigil="backend" class="semantic-sigil s-backend" transform="translate(286 86) scale(0.6875)">
            <path d="M6 3 3 8l3 5M10 3l3 5-3 5"/>
          </g>
          <text data-node-label="" data-detail-anchor="" x="374" y="110" class="t-primary" font-size="11" font-weight="600" text-anchor="middle">PFT · InfoNCE</text>
        <text data-detail="context" x="374" y="126" class="t-muted" font-size="9" text-anchor="middle">단일 언어 배치 16,384</text>
        </g>

        <g id="kure-v2-training-node-unsup" data-node-id="unsup" data-node-label="KURE-v2-unsupervised" tabindex="0" role="button" aria-label="Focus KURE-v2-unsupervised, 0.7283, 1단계 PFT" aria-pressed="false" data-node-kind="frontend" data-node-sublabel="0.7283" data-node-context="1단계 PFT">
          <title>KURE-v2-unsupervised · 0.7283 · 1단계 PFT</title>
          <rect x="520" y="80" width="188" height="64" rx="6" class="c-mask"/>
          <rect x="520" y="80" width="188" height="64" rx="6" class="c-frontend" stroke-width="1.5"/>
          <g aria-hidden="true" data-semantic-sigil="frontend" class="semantic-sigil s-frontend" transform="translate(526 86) scale(0.6875)">
            <rect x="2" y="3" width="12" height="10" rx="2"/>
            <path d="M2 6.5h12"/>
            <circle cx="4.1" cy="4.8" r=".7" class="sigil-fill"/>
            <circle cx="6.3" cy="4.8" r=".7" class="sigil-fill"/>
          </g>
          <text data-node-label="" data-detail-anchor="" x="614" y="110" class="t-primary" font-size="11" font-weight="600" text-anchor="middle">KURE-v2-unsupervised</text>
        <text data-detail="context" x="614" y="126" class="t-muted" font-size="9" text-anchor="middle">0.7283</text>
        </g>

        <g id="kure-v2-training-node-sft_data" data-node-id="sft_data" data-node-label="정답 1 + 하드 네거티브 7" tabindex="0" role="button" aria-label="Focus 정답 1 + 하드 네거티브 7, percpos 마이닝, 2단계 SFT" aria-pressed="false" data-node-kind="database" data-node-sublabel="percpos 마이닝" data-node-context="2단계 SFT">
          <title>정답 1 + 하드 네거티브 7 · percpos 마이닝 · 2단계 SFT</title>
          <rect x="40" y="208" width="188" height="72" rx="6" class="c-mask"/>
          <rect x="40" y="208" width="188" height="72" rx="6" class="c-database" stroke-width="1.5"/>
          <g aria-hidden="true" data-semantic-sigil="database" class="semantic-sigil s-database" transform="translate(46 214) scale(0.6875)">
            <ellipse cx="8" cy="4" rx="5" ry="2"/>
            <path d="M3 4v8c0 1.1 2.2 2 5 2s5-.9 5-2V4M3 8c0 1.1 2.2 2 5 2s5-.9 5-2"/>
          </g>
          <text data-node-label="" data-detail-anchor="" x="134" y="242" class="t-primary" font-size="11" font-weight="600" text-anchor="middle">정답 1 + 하드 네거티브 7</text>
        <text data-detail="context" x="134" y="258" class="t-muted" font-size="9" text-anchor="middle">percpos 마이닝</text>
        </g>

        <g id="kure-v2-training-node-sft_train" data-node-id="sft_train" data-node-label="SFT" tabindex="0" role="button" aria-label="Focus SFT, 대조 손실(배치 256) + KL 증류, 2단계 SFT" aria-pressed="false" data-node-kind="backend" data-node-sublabel="대조 손실(배치 256) + KL 증류" data-node-context="2단계 SFT">
          <title>SFT · 대조 손실(배치 256) + KL 증류 · 2단계 SFT</title>
          <rect x="280" y="208" width="188" height="72" rx="6" class="c-mask"/>
          <rect x="280" y="208" width="188" height="72" rx="6" class="c-backend" stroke-width="1.5"/>
          <g aria-hidden="true" data-semantic-sigil="backend" class="semantic-sigil s-backend" transform="translate(286 214) scale(0.6875)">
            <path d="M6 3 3 8l3 5M10 3l3 5-3 5"/>
          </g>
          <text data-node-label="" data-detail-anchor="" x="374" y="242" class="t-primary" font-size="11" font-weight="600" text-anchor="middle">SFT</text>
        <text data-detail="context" x="374" y="258" class="t-muted" font-size="9" text-anchor="middle">대조 손실(배치 256) + KL 증류</text>
        </g>

        <g id="kure-v2-training-node-kure" data-node-id="kure" data-node-label="KURE-v2" tabindex="0" role="button" aria-label="Focus KURE-v2, 2단계 SFT" aria-pressed="false" data-node-kind="frontend" data-node-context="2단계 SFT">
          <title>KURE-v2 · 2단계 SFT</title>
          <rect x="520" y="208" width="188" height="72" rx="6" class="c-mask"/>
          <rect x="520" y="208" width="188" height="72" rx="6" class="c-frontend" stroke-width="1.5"/>
          <g aria-hidden="true" data-semantic-sigil="frontend" class="semantic-sigil s-frontend" transform="translate(526 214) scale(0.6875)">
            <rect x="2" y="3" width="12" height="10" rx="2"/>
            <path d="M2 6.5h12"/>
            <circle cx="4.1" cy="4.8" r=".7" class="sigil-fill"/>
            <circle cx="6.3" cy="4.8" r=".7" class="sigil-fill"/>
          </g>
          <text data-node-label="" x="614" y="248" class="t-primary" font-size="11" font-weight="600" text-anchor="middle">KURE-v2</text>
        </g>

        <g id="kure-v2-training-node-ko_relabel" data-node-id="ko_relabel" data-node-label="한국어 약 146만" tabindex="0" role="button" aria-label="Focus 한국어 약 146만, Qwen3-32B 재판정, 2단계 SFT" aria-pressed="false" data-node-kind="database" data-node-sublabel="Qwen3-32B 재판정" data-node-context="2단계 SFT">
          <title>한국어 약 146만 · Qwen3-32B 재판정 · 2단계 SFT</title>
          <rect x="40" y="336" width="188" height="64" rx="6" class="c-mask"/>
          <rect x="40" y="336" width="188" height="64" rx="6" class="c-database" stroke-width="1.5"/>
          <g aria-hidden="true" data-semantic-sigil="database" class="semantic-sigil s-database" transform="translate(46 342) scale(0.6875)">
            <ellipse cx="8" cy="4" rx="5" ry="2"/>
            <path d="M3 4v8c0 1.1 2.2 2 5 2s5-.9 5-2V4M3 8c0 1.1 2.2 2 5 2s5-.9 5-2"/>
          </g>
          <text data-node-label="" data-detail-anchor="" x="134" y="366" class="t-primary" font-size="11" font-weight="600" text-anchor="middle">한국어 약 146만</text>
        <text data-detail="context" x="134" y="382" class="t-muted" font-size="9" text-anchor="middle">Qwen3-32B 재판정</text>
        </g>

        <g id="kure-v2-training-node-reranker" data-node-id="reranker" data-node-label="Qwen3-Reranker-4B 점수" tabindex="0" role="button" aria-label="Focus Qwen3-Reranker-4B 점수, 2단계 SFT" aria-pressed="false" data-node-kind="external" data-node-context="2단계 SFT">
          <title>Qwen3-Reranker-4B 점수 · 2단계 SFT</title>
          <rect x="280" y="336" width="188" height="64" rx="6" class="c-mask"/>
          <rect x="280" y="336" width="188" height="64" rx="6" class="c-external" stroke-width="1.5"/>
          <g aria-hidden="true" data-semantic-sigil="external" class="semantic-sigil s-external" transform="translate(286 342) scale(0.6875)">
            <rect x="2.5" y="5" width="8.5" height="8" rx="1.5"/>
            <path d="M8 2.5h5.5V8M13.5 2.5 7.5 8.5"/>
          </g>
          <text data-node-label="" x="374" y="372" class="t-primary" font-size="11" font-weight="600" text-anchor="middle">Qwen3-Reranker-4B 점수</text>
        </g>

        <!-- Connection labels -->


        <g data-detail="context" data-edge-from="unsup" data-edge-to="sft_train" data-edge-label="초기 가중치" data-edge-key="2">
          <rect x="462.6" y="158" width="62.8" height="14" rx="3" class="c-mask"/>
          <text x="494" y="168" class="t-backend" font-size="8" text-anchor="middle">초기 가중치</text>
        </g>



        <g data-detail="context" data-edge-from="reranker" data-edge-to="sft_data" data-edge-label="위음성 필터" data-edge-key="6">
          <rect x="222.6" y="289.5" width="62.8" height="14" rx="3" class="c-mask"/>
          <text x="254" y="299.5" class="t-messagebus" font-size="8" text-anchor="middle">위음성 필터</text>
        </g>
        <g data-detail="context" data-edge-from="reranker" data-edge-to="sft_train" data-edge-label="KL 증류" data-edge-key="7">
          <rect x="352.2" y="316" width="43.6" height="14" rx="3" class="c-mask"/>
          <text x="374" y="326" class="t-messagebus" font-size="8" text-anchor="middle">KL 증류</text>
        </g>

        <!-- Boundary labels (foreground masks keep routes out of titles) -->
        <g data-graph-role="structural-frame-label" data-composition-frame-id="0" data-composition-frame-kind="region" data-composition-frame-label="1단계 PFT">
          <rect data-graph-role="structural-frame-label-mask" x="28" y="60" width="58.6" height="16" rx="3" class="c-mask"/>
          <text data-boundary-label="" x="32" y="73" class="t-cloud" font-size="9" font-weight="600">1단계 PFT</text>
        </g>

        <g data-graph-role="structural-frame-label" data-composition-frame-id="1" data-composition-frame-kind="region" data-composition-frame-label="2단계 SFT">
          <rect data-graph-role="structural-frame-label-mask" x="28" y="188" width="58.6" height="16" rx="3" class="c-mask"/>
          <text data-boundary-label="" x="32" y="201" class="t-cloud" font-size="9" font-weight="600">2단계 SFT</text>
        </g>

        <!-- Legend -->
        <g data-legend="" data-legend-bridge="">
          <text x="40" y="452" class="t-primary" font-size="12" font-weight="650">범례</text>
          <g data-legend-semantic-kind="frontend" data-legend-kind="frontend" data-legend-label="결과 모델" data-legend-x="40" data-legend-baseline="472" data-legend-width="88">
            <rect x="40" y="463" width="16" height="10" rx="2.5" class="c-frontend" stroke-width="1"/>
            <text x="62" y="472" class="t-muted" font-size="10" font-weight="500">결과 모델</text>
          </g>
          <g data-legend-semantic-kind="backend" data-legend-kind="backend" data-legend-label="학습 단계" data-legend-x="150" data-legend-baseline="472" data-legend-width="88">
            <rect x="150" y="463" width="16" height="10" rx="2.5" class="c-backend" stroke-width="1"/>
            <text x="172" y="472" class="t-muted" font-size="10" font-weight="500">학습 단계</text>
          </g>
          <g data-legend-semantic-kind="database" data-legend-kind="database" data-legend-label="학습 데이터" data-legend-x="260" data-legend-baseline="472" data-legend-width="98">
            <rect x="260" y="463" width="16" height="10" rx="2.5" class="c-database" stroke-width="1"/>
            <text x="282" y="472" class="t-muted" font-size="10" font-weight="500">학습 데이터</text>
          </g>
          <g data-legend-semantic-kind="external" data-legend-kind="external" data-legend-label="교사 모델 점수" data-legend-x="380" data-legend-baseline="472" data-legend-width="113">
            <rect x="380" y="463" width="16" height="10" rx="2.5" class="c-external" stroke-width="1"/>
            <text x="402" y="472" class="t-muted" font-size="10" font-weight="500">교사 모델 점수</text>
          </g>
        </g>
      </svg>
