<svg viewBox="0 0 940 520" role="img" lang="en" aria-labelledby="archify-diagram-title archify-diagram-description" data-preset="classic" data-quality-profile="showcase">
        <title id="vector-rag-flow-archify-diagram-title">RAG의 색인과 질의 흐름</title>
        <desc id="vector-rag-flow-archify-diagram-description">A data-flow diagram generated by Archify.</desc>
        <!-- Definitions -->
        <defs>
          <marker id="vector-rag-flow-arrowhead" markerWidth="10" markerHeight="7" refX="9" refY="3.5" orient="auto">
            <polygon points="0 0, 10 3.5, 0 7" class="m-default" />
          </marker>
          <marker id="vector-rag-flow-arrowhead-emphasis" markerWidth="10" markerHeight="7" refX="9" refY="3.5" orient="auto">
            <polygon points="0 0, 10 3.5, 0 7" class="m-emphasis" />
          </marker>
          <marker id="vector-rag-flow-arrowhead-security" markerWidth="10" markerHeight="7" refX="9" refY="3.5" orient="auto">
            <polygon points="0 0, 10 3.5, 0 7" class="m-security" />
          </marker>
          <marker id="vector-rag-flow-arrowhead-dashed" markerWidth="10" markerHeight="7" refX="9" refY="3.5" orient="auto">
            <polygon points="0 0, 10 3.5, 0 7" class="m-dashed" />
          </marker>
          <pattern id="vector-rag-flow-grid" width="40" height="40" patternUnits="userSpaceOnUse">
            <path d="M 40 0 L 0 0 0 40" class="c-grid" stroke-width="0.5"/>
          </pattern>
        </defs>

        <!-- Background Grid -->
        <rect width="100%" height="100%" fill="url(#vector-rag-flow-grid)" />

        <!-- Data Stages -->
        <rect data-graph-role="structural-frame" data-composition-frame-kind="stage" data-composition-frame-id="0" x="16" y="46" width="168" height="400" rx="10" class="c-lane" stroke-width="1"/>
        <text x="100" y="68" class="t-dim" font-size="9" font-weight="600" text-anchor="middle">01 / 입력</text>

        <rect data-graph-role="structural-frame" data-composition-frame-kind="stage" data-composition-frame-id="1" x="231" y="46" width="168" height="400" rx="10" class="c-lane" stroke-width="1"/>
        <text x="315" y="68" class="t-dim" font-size="9" font-weight="600" text-anchor="middle">02 / 임베딩</text>

        <rect data-graph-role="structural-frame" data-composition-frame-kind="stage" data-composition-frame-id="2" x="446" y="46" width="168" height="400" rx="10" class="c-lane" stroke-width="1"/>
        <text x="530" y="68" class="t-dim" font-size="9" font-weight="600" text-anchor="middle">03 / 검색</text>

        <rect data-graph-role="structural-frame" data-composition-frame-kind="stage" data-composition-frame-id="3" x="661" y="46" width="168" height="400" rx="10" class="c-lane" stroke-width="1"/>
        <text x="745" y="68" class="t-dim" font-size="9" font-weight="600" text-anchor="middle">04 / 결합·생성</text>

        <!-- Flow paths -->
        <path data-edge-from="docs" data-edge-to="chunk_embed" data-edge-label="원문" data-edge-key="0" data-composition-points="156,157;259,157" d="M 156 157 L 259 157" class="a-default" stroke-width="1.4" marker-end="url(#vector-rag-flow-arrowhead)"/>
        <path data-edge-from="chunk_embed" data-edge-to="vector_db" data-edge-label="벡터 저장" data-edge-key="1" data-composition-points="371,157;422.5,157;422.5,264;474,264" d="M 371 157 L 422.5 157 L 422.5 264 L 474 264" class="a-default" stroke-width="1.4" marker-end="url(#vector-rag-flow-arrowhead)"/>
        <path data-edge-from="question" data-edge-to="query_embed" data-edge-label="질문" data-edge-key="2" data-composition-points="156,385;259,385" d="M 156 385 L 259 385" class="a-emphasis" stroke-width="1.8" marker-end="url(#vector-rag-flow-arrowhead-emphasis)"/>
        <path data-edge-from="query_embed" data-edge-to="vector_db" data-edge-label="Top-k · 권한 필터" data-edge-key="3" data-composition-points="371,385;422.5,385;422.5,278;474,278" d="M 371 385 L 422.5 385 L 422.5 278 L 474 278" class="a-emphasis" stroke-width="1.8" marker-end="url(#vector-rag-flow-arrowhead-emphasis)"/>
        <path data-edge-from="vector_db" data-edge-to="rerank" data-edge-label="후보 조각" data-edge-key="4" data-composition-points="586,271;689,271" d="M 586 271 L 689 271" class="a-emphasis" stroke-width="1.8" marker-end="url(#vector-rag-flow-arrowhead-emphasis)"/>
        <path data-edge-from="rerank" data-edge-to="llm" data-edge-label="질문 + 관련 문서" data-edge-key="5" data-composition-points="745,300;745,356" d="M 745 300 L 745 356" class="a-emphasis" stroke-width="1.8" marker-end="url(#vector-rag-flow-arrowhead-emphasis)"/>

        <!-- Nodes -->
        <g id="vector-rag-flow-node-docs" data-node-id="docs" data-node-label="원본 문서" tabindex="0" role="button" aria-label="Focus 원본 문서, 규정·설명서·장애 기록, 01 / 입력" aria-pressed="false" data-node-kind="external" data-node-sublabel="규정·설명서·장애 기록" data-node-context="01 / 입력">
          <title>원본 문서 · 규정·설명서·장애 기록 · 01 / 입력</title>
          <rect x="44" y="128" width="112" height="58" rx="6" class="c-mask"/>
          <rect x="44" y="128" width="112" height="58" rx="6" class="c-external" stroke-width="1.5"/>
          <g aria-hidden="true" data-semantic-sigil="external" class="semantic-sigil s-external" transform="translate(50 134) scale(0.6875)">
            <rect x="2.5" y="5" width="8.5" height="8" rx="1.5"/>
            <path d="M8 2.5h5.5V8M13.5 2.5 7.5 8.5"/>
          </g>
          <text data-node-label="" data-detail-anchor="" x="100" y="149" class="t-primary" font-size="10" font-weight="600" text-anchor="middle">원본 문서</text>
          <text data-detail="context" x="100" y="165" class="t-muted" font-size="7" text-anchor="middle">규정·설명서·장애 기록</text>
        </g>

        <g id="vector-rag-flow-node-chunk_embed" data-node-id="chunk_embed" data-node-label="분할·임베딩" tabindex="0" role="button" aria-label="Focus 분할·임베딩, 조각마다 벡터 생성, 02 / 임베딩" aria-pressed="false" data-node-kind="backend" data-node-sublabel="조각마다 벡터 생성" data-node-context="02 / 임베딩">
          <title>분할·임베딩 · 조각마다 벡터 생성 · 02 / 임베딩</title>
          <rect x="259" y="128" width="112" height="58" rx="6" class="c-mask"/>
          <rect x="259" y="128" width="112" height="58" rx="6" class="c-backend" stroke-width="1.5"/>
          <g aria-hidden="true" data-semantic-sigil="backend" class="semantic-sigil s-backend" transform="translate(265 134) scale(0.6875)">
            <path d="M6 3 3 8l3 5M10 3l3 5-3 5"/>
          </g>
          <text data-node-label="" data-detail-anchor="" x="315" y="149" class="t-primary" font-size="10" font-weight="600" text-anchor="middle">분할·임베딩</text>
          <text data-detail="context" x="315" y="165" class="t-muted" font-size="7" text-anchor="middle">조각마다 벡터 생성</text>
        </g>

        <g id="vector-rag-flow-node-question" data-node-id="question" data-node-label="사용자 질문" tabindex="0" role="button" aria-label="Focus 사용자 질문, 01 / 입력" aria-pressed="false" data-node-kind="frontend" data-node-context="01 / 입력">
          <title>사용자 질문 · 01 / 입력</title>
          <rect x="44" y="356" width="112" height="58" rx="6" class="c-mask"/>
          <rect x="44" y="356" width="112" height="58" rx="6" class="c-frontend" stroke-width="1.5"/>
          <g aria-hidden="true" data-semantic-sigil="frontend" class="semantic-sigil s-frontend" transform="translate(50 362) scale(0.6875)">
            <rect x="2" y="3" width="12" height="10" rx="2"/>
            <path d="M2 6.5h12"/>
            <circle cx="4.1" cy="4.8" r=".7" class="sigil-fill"/>
            <circle cx="6.3" cy="4.8" r=".7" class="sigil-fill"/>
          </g>
          <text data-node-label="" x="100" y="377" class="t-primary" font-size="10" font-weight="600" text-anchor="middle">사용자 질문</text>
        </g>

        <g id="vector-rag-flow-node-query_embed" data-node-id="query_embed" data-node-label="질문 임베딩" tabindex="0" role="button" aria-label="Focus 질문 임베딩, 호환되는 인코더, 02 / 임베딩" aria-pressed="false" data-node-kind="backend" data-node-sublabel="호환되는 인코더" data-node-context="02 / 임베딩">
          <title>질문 임베딩 · 호환되는 인코더 · 02 / 임베딩</title>
          <rect x="259" y="356" width="112" height="58" rx="6" class="c-mask"/>
          <rect x="259" y="356" width="112" height="58" rx="6" class="c-backend" stroke-width="1.5"/>
          <g aria-hidden="true" data-semantic-sigil="backend" class="semantic-sigil s-backend" transform="translate(265 362) scale(0.6875)">
            <path d="M6 3 3 8l3 5M10 3l3 5-3 5"/>
          </g>
          <text data-node-label="" data-detail-anchor="" x="315" y="377" class="t-primary" font-size="10" font-weight="600" text-anchor="middle">질문 임베딩</text>
          <text data-detail="context" x="315" y="393" class="t-muted" font-size="7" text-anchor="middle">호환되는 인코더</text>
        </g>

        <g id="vector-rag-flow-node-vector_db" data-node-id="vector_db" data-node-label="벡터 DB" tabindex="0" role="button" aria-label="Focus 벡터 DB, 벡터·원본 ID·메타데이터, 03 / 검색" aria-pressed="false" data-node-kind="database" data-node-sublabel="벡터·원본 ID·메타데이터" data-node-context="03 / 검색">
          <title>벡터 DB · 벡터·원본 ID·메타데이터 · 03 / 검색</title>
          <rect x="474" y="242" width="112" height="58" rx="6" class="c-mask"/>
          <rect x="474" y="242" width="112" height="58" rx="6" class="c-database" stroke-width="1.5"/>
          <g aria-hidden="true" data-semantic-sigil="database" class="semantic-sigil s-database" transform="translate(480 248) scale(0.6875)">
            <ellipse cx="8" cy="4" rx="5" ry="2"/>
            <path d="M3 4v8c0 1.1 2.2 2 5 2s5-.9 5-2V4M3 8c0 1.1 2.2 2 5 2s5-.9 5-2"/>
          </g>
          <text data-node-label="" data-detail-anchor="" x="530" y="263" class="t-primary" font-size="10" font-weight="600" text-anchor="middle">벡터 DB</text>
          <text data-detail="context" x="530" y="279" class="t-muted" font-size="7" text-anchor="middle">벡터·원본 ID·메타데이터</text>
        </g>

        <g id="vector-rag-flow-node-rerank" data-node-id="rerank" data-node-label="결합·재순위화" tabindex="0" role="button" aria-label="Focus 결합·재순위화, 키워드 결과 (필요시), 04 / 결합·생성" aria-pressed="false" data-node-kind="backend" data-node-sublabel="키워드 결과 (필요시)" data-node-context="04 / 결합·생성">
          <title>결합·재순위화 · 키워드 결과 (필요시) · 04 / 결합·생성</title>
          <rect x="689" y="242" width="112" height="58" rx="6" class="c-mask"/>
          <rect x="689" y="242" width="112" height="58" rx="6" class="c-backend" stroke-width="1.5"/>
          <g aria-hidden="true" data-semantic-sigil="backend" class="semantic-sigil s-backend" transform="translate(695 248) scale(0.6875)">
            <path d="M6 3 3 8l3 5M10 3l3 5-3 5"/>
          </g>
          <text data-node-label="" data-detail-anchor="" x="745" y="263" class="t-primary" font-size="10" font-weight="600" text-anchor="middle">결합·재순위화</text>
          <text data-detail="context" x="745" y="279" class="t-muted" font-size="7" text-anchor="middle">키워드 결과 (필요시)</text>
        </g>

        <g id="vector-rag-flow-node-llm" data-node-id="llm" data-node-label="LLM" tabindex="0" role="button" aria-label="Focus LLM, 답변 생성, 04 / 결합·생성" aria-pressed="false" data-node-kind="cloud" data-node-sublabel="답변 생성" data-node-context="04 / 결합·생성">
          <title>LLM · 답변 생성 · 04 / 결합·생성</title>
          <rect x="689" y="356" width="112" height="58" rx="6" class="c-mask"/>
          <rect x="689" y="356" width="112" height="58" rx="6" class="c-cloud" stroke-width="1.5"/>
          <g aria-hidden="true" data-semantic-sigil="cloud" class="semantic-sigil s-cloud" transform="translate(695 362) scale(0.6875)">
            <path d="M4.3 12.5h7.3a2.4 2.4 0 0 0 .2-4.8 4 4 0 0 0-7.5-1.3A3.1 3.1 0 0 0 4.3 12.5Z"/>
          </g>
          <text data-node-label="" data-detail-anchor="" x="745" y="377" class="t-primary" font-size="10" font-weight="600" text-anchor="middle">LLM</text>
          <text data-detail="context" x="745" y="393" class="t-muted" font-size="7" text-anchor="middle">답변 생성</text>
        </g>

        <!-- Flow labels -->
        <g data-detail="context" data-edge-from="docs" data-edge-to="chunk_embed" data-edge-label="원문" data-edge-key="0">
          <rect x="190.5" y="136" width="34" height="16" rx="4" class="c-mask"/>
          <text x="207.5" y="147" class="t-muted" font-size="8" text-anchor="middle">원문</text>
        </g>
        <g data-detail="context" data-edge-from="chunk_embed" data-edge-to="vector_db" data-edge-label="벡터 저장" data-edge-key="1">
          <rect x="394.45" y="189.5" width="56.1" height="16" rx="4" class="c-mask"/>
          <text x="422.5" y="200.5" class="t-muted" font-size="8" text-anchor="middle">벡터 저장</text>
        </g>
        <g data-detail="context" data-edge-from="question" data-edge-to="query_embed" data-edge-label="질문" data-edge-key="2">
          <rect x="190.5" y="364" width="34" height="16" rx="4" class="c-mask"/>
          <text x="207.5" y="375" class="t-backend" font-size="8" text-anchor="middle">질문</text>
        </g>
        <g data-detail="context" data-edge-from="query_embed" data-edge-to="vector_db" data-edge-label="Top-k · 권한 필터" data-edge-key="3">
          <rect x="374.85" y="310.5" width="95.3" height="16" rx="4" class="c-mask"/>
          <text x="422.5" y="321.5" class="t-backend" font-size="8" text-anchor="middle">Top-k · 권한 필터</text>
        </g>
        <g data-detail="context" data-edge-from="vector_db" data-edge-to="rerank" data-edge-label="후보 조각" data-edge-key="4">
          <rect x="609.45" y="250" width="56.1" height="16" rx="4" class="c-mask"/>
          <text x="637.5" y="261" class="t-backend" font-size="8" text-anchor="middle">후보 조각</text>
        </g>
        <g data-detail="context" data-edge-from="rerank" data-edge-to="llm" data-edge-label="질문 + 관련 문서" data-edge-key="5">
          <rect x="699.8" y="303" width="90.4" height="16" rx="4" class="c-mask"/>
          <text x="745" y="314" class="t-backend" font-size="8" text-anchor="middle">질문 + 관련 문서</text>
        </g>

        <!-- Legend -->
        <g data-legend="" data-legend-bridge="">
          <text x="40" y="464" class="t-primary" font-size="12" font-weight="650">범례</text>
          <g data-legend-semantic-kind="emphasis" data-legend-x="40" data-legend-baseline="484" data-legend-width="63">
            <path d="M 40 481 L 74 481" class="a-emphasis" stroke-width="1.8" marker-end="url(#vector-rag-flow-arrowhead-emphasis)"/>
            <text x="83" y="484" class="t-muted" font-size="10" font-weight="500">질의</text>
          </g>
          <g data-legend-semantic-kind="database" data-legend-kind="database" data-legend-label="벡터 저장소" data-legend-x="125" data-legend-baseline="484" data-legend-width="98">
            <rect x="125" y="476" width="14" height="9" rx="2" class="c-database" stroke-width="1"/>
            <text x="147" y="484" class="t-muted" font-size="10" font-weight="500">벡터 저장소</text>
          </g>
          <g data-legend-semantic-kind="default" data-legend-x="245" data-legend-baseline="484" data-legend-width="63">
            <path d="M 245 481 L 279 481" class="a-default" stroke-width="1.4" marker-end="url(#vector-rag-flow-arrowhead)"/>
            <text x="288" y="484" class="t-muted" font-size="10" font-weight="500">색인</text>
          </g>
        </g>
      </svg>
