<svg viewBox="0 0 770 442" role="img" lang="en" aria-labelledby="archify-diagram-title archify-diagram-description" data-preset="classic" data-quality-profile="showcase">
        <title id="x509-trust-archify-diagram-title">복제 셋 x.509 인증의 신뢰 계층</title>
        <desc id="x509-trust-archify-diagram-description">An architecture diagram generated by Archify.</desc>
        <!-- Definitions -->
        <defs>
          <marker id="x509-trust-arrowhead" markerWidth="10" markerHeight="7" refX="9" refY="3.5" orient="auto">
            <polygon points="0 0, 10 3.5, 0 7" class="m-default" />
          </marker>
          <marker id="x509-trust-arrowhead-emphasis" markerWidth="10" markerHeight="7" refX="9" refY="3.5" orient="auto">
            <polygon points="0 0, 10 3.5, 0 7" class="m-emphasis" />
          </marker>
          <marker id="x509-trust-arrowhead-security" markerWidth="10" markerHeight="7" refX="9" refY="3.5" orient="auto">
            <polygon points="0 0, 10 3.5, 0 7" class="m-security" />
          </marker>
          <marker id="x509-trust-arrowhead-dashed" markerWidth="10" markerHeight="7" refX="9" refY="3.5" orient="auto">
            <polygon points="0 0, 10 3.5, 0 7" class="m-dashed" />
          </marker>
          <pattern id="x509-trust-grid" width="40" height="40" patternUnits="userSpaceOnUse">
            <path d="M 40 0 L 0 0 0 40" class="c-grid" stroke-width="0.5"/>
          </pattern>
        </defs>

        <!-- Background Grid -->
        <rect width="100%" height="100%" fill="url(#x509-trust-grid)" />

        <!-- Boundaries (behind everything) -->
        <rect data-graph-role="structural-frame" data-composition-frame-kind="security-group" data-composition-frame-id="0" data-composition-frame-label="멤버 자격 — 같은 CA 가 서명하고 O · OU · DC 조합이 일치해야 한다" x="250" y="30" width="480" height="239" rx="8" class="c-security-group" stroke-width="1"/>

        <!-- Connection paths (before components for correct z-order) -->
        <path data-edge-from="ca" data-edge-to="membercert" data-edge-label="서명" data-edge-key="0" data-composition-points="180,217;230,217;230,92;280,92" d="M 180 217 L 222 217 Q 230 217 230 209 L 230 100 Q 230 92 238 92 L 280 92" class="a-security" stroke-width="1.5" marker-end="url(#x509-trust-arrowhead-security)"/>
        <path data-edge-from="ca" data-edge-to="clientcert" data-edge-label="서명" data-edge-key="1" data-composition-points="110,249;110,279.5;365,279.5;365,310" d="M 110 249 L 110 271.5 Q 110 279.5 118 279.5 L 357 279.5 Q 365 279.5 365 287.5 L 365 310" class="a-security" stroke-width="1.5" marker-end="url(#x509-trust-arrowhead-security)"/>
        <path data-edge-from="app" data-edge-to="clientcert" data-edge-label="제시" data-edge-key="2" data-composition-points="180,342;280,342" d="M 180 342 L 280 342" class="a-default" stroke-width="1.5" marker-end="url(#x509-trust-arrowhead)"/>
        <path data-edge-from="membercert" data-edge-to="rs" data-edge-label="멤버 인증" data-edge-key="3" data-composition-points="450,92;505,92;505,210;560,210" d="M 450 92 L 497 92 Q 505 92 505 100 L 505 202 Q 505 210 513 210 L 560 210" class="a-default" stroke-width="1.5" marker-end="url(#x509-trust-arrowhead)"/>
        <path data-edge-from="clientcert" data-edge-to="rs" data-edge-label="클라이언트 인증" data-edge-key="4" data-composition-points="450,342;505,342;505,224;560,224" d="M 450 342 L 497 342 Q 505 342 505 334 L 505 232 Q 505 224 513 224 L 560 224" class="a-emphasis" stroke-width="1.8" marker-end="url(#x509-trust-arrowhead-emphasis)"/>

        <!-- Components -->
        <g id="x509-trust-node-ca" data-node-id="ca" data-node-label="인증기관(CA)" tabindex="0" role="button" aria-label="Focus 인증기관(CA), 루트 인증서, Architecture component" aria-pressed="false" data-node-kind="security" data-node-sublabel="루트 인증서" data-node-tag="복제 셋에 하나" data-node-context="Architecture component">
          <title>인증기관(CA) · 루트 인증서 · Architecture component · 복제 셋에 하나</title>
          <rect x="40" y="185" width="140" height="64" rx="6" class="c-mask"/>
          <rect x="40" y="185" width="140" height="64" rx="6" class="c-security" stroke-width="1.5"/>
          <g aria-hidden="true" data-semantic-sigil="security" class="semantic-sigil s-security" transform="translate(46 191) scale(0.6875)">
            <path d="M8 2.2 13 4v3.5c0 3.1-1.8 5.4-5 6.5-3.2-1.1-5-3.4-5-6.5V4Z"/>
            <path d="m5.8 8 1.5 1.5 3-3"/>
          </g>
          <text data-node-label="" data-detail-anchor="" x="110" y="215" class="t-primary" font-size="11" font-weight="600" text-anchor="middle">인증기관(CA)</text>
        <text data-detail="context" x="110" y="231" class="t-muted" font-size="9" text-anchor="middle">루트 인증서</text>
        <text data-detail="fine" x="110" y="241" class="t-security" font-size="7" text-anchor="middle">복제 셋에 하나</text>
        </g>

        <g id="x509-trust-node-membercert" data-node-id="membercert" data-node-label="멤버 인증서" tabindex="0" role="button" aria-label="Focus 멤버 인증서, O · OU · DC 가 모두 같음, 멤버 자격 — 같은 CA 가 서명하고 O · OU · DC 조합이 일치해야 한다" aria-pressed="false" data-node-kind="security" data-node-sublabel="O · OU · DC 가 모두 같음" data-node-context="멤버 자격 — 같은 CA 가 서명하고 O · OU · DC 조합이 일치해야 한다">
          <title>멤버 인증서 · O · OU · DC 가 모두 같음 · 멤버 자격 — 같은 CA 가 서명하고 O · OU · DC 조합이 일치해야 한다</title>
          <rect x="280" y="60" width="170" height="64" rx="6" class="c-mask"/>
          <rect x="280" y="60" width="170" height="64" rx="6" class="c-security" stroke-width="1.5"/>
          <g aria-hidden="true" data-semantic-sigil="security" class="semantic-sigil s-security" transform="translate(286 66) scale(0.6875)">
            <path d="M8 2.2 13 4v3.5c0 3.1-1.8 5.4-5 6.5-3.2-1.1-5-3.4-5-6.5V4Z"/>
            <path d="m5.8 8 1.5 1.5 3-3"/>
          </g>
          <text data-node-label="" data-detail-anchor="" x="365" y="90" class="t-primary" font-size="11" font-weight="600" text-anchor="middle">멤버 인증서</text>
        <text data-detail="context" x="365" y="106" class="t-muted" font-size="9" text-anchor="middle">O · OU · DC 가 모두 같음</text>
        </g>

        <g id="x509-trust-node-clientcert" data-node-id="clientcert" data-node-label="클라이언트 인증서" tabindex="0" role="button" aria-label="Focus 클라이언트 인증서, subject 가 멤버와 다름, Architecture component" aria-pressed="false" data-node-kind="security" data-node-sublabel="subject 가 멤버와 다름" data-node-tag="사용자마다 하나" data-node-context="Architecture component">
          <title>클라이언트 인증서 · subject 가 멤버와 다름 · Architecture component · 사용자마다 하나</title>
          <rect x="280" y="310" width="170" height="64" rx="6" class="c-mask"/>
          <rect x="280" y="310" width="170" height="64" rx="6" class="c-security" stroke-width="1.5"/>
          <g aria-hidden="true" data-semantic-sigil="security" class="semantic-sigil s-security" transform="translate(286 316) scale(0.6875)">
            <path d="M8 2.2 13 4v3.5c0 3.1-1.8 5.4-5 6.5-3.2-1.1-5-3.4-5-6.5V4Z"/>
            <path d="m5.8 8 1.5 1.5 3-3"/>
          </g>
          <text data-node-label="" data-detail-anchor="" x="365" y="340" class="t-primary" font-size="11" font-weight="600" text-anchor="middle">클라이언트 인증서</text>
        <text data-detail="context" x="365" y="356" class="t-muted" font-size="9" text-anchor="middle">subject 가 멤버와 다름</text>
        <text data-detail="fine" x="365" y="366" class="t-security" font-size="7" text-anchor="middle">사용자마다 하나</text>
        </g>

        <g id="x509-trust-node-rs" data-node-id="rs" data-node-label="복제 셋" tabindex="0" role="button" aria-label="Focus 복제 셋, mongod 멤버, 멤버 자격 — 같은 CA 가 서명하고 O · OU · DC 조합이 일치해야 한다" aria-pressed="false" data-node-kind="database" data-node-sublabel="mongod 멤버" data-node-context="멤버 자격 — 같은 CA 가 서명하고 O · OU · DC 조합이 일치해야 한다">
          <title>복제 셋 · mongod 멤버 · 멤버 자격 — 같은 CA 가 서명하고 O · OU · DC 조합이 일치해야 한다</title>
          <rect x="560" y="185" width="140" height="64" rx="6" class="c-mask"/>
          <rect x="560" y="185" width="140" height="64" rx="6" class="c-database" stroke-width="1.5"/>
          <g aria-hidden="true" data-semantic-sigil="database" class="semantic-sigil s-database" transform="translate(566 191) scale(0.6875)">
            <ellipse cx="8" cy="4" rx="5" ry="2"/>
            <path d="M3 4v8c0 1.1 2.2 2 5 2s5-.9 5-2V4M3 8c0 1.1 2.2 2 5 2s5-.9 5-2"/>
          </g>
          <text data-node-label="" data-detail-anchor="" x="630" y="215" class="t-primary" font-size="11" font-weight="600" text-anchor="middle">복제 셋</text>
        <text data-detail="context" x="630" y="231" class="t-muted" font-size="9" text-anchor="middle">mongod 멤버</text>
        </g>

        <g id="x509-trust-node-app" data-node-id="app" data-node-label="애플리케이션" tabindex="0" role="button" aria-label="Focus 애플리케이션, 드라이버, Architecture component" aria-pressed="false" data-node-kind="frontend" data-node-sublabel="드라이버" data-node-context="Architecture component">
          <title>애플리케이션 · 드라이버 · Architecture component</title>
          <rect x="40" y="310" width="140" height="64" rx="6" class="c-mask"/>
          <rect x="40" y="310" width="140" height="64" rx="6" class="c-frontend" stroke-width="1.5"/>
          <g aria-hidden="true" data-semantic-sigil="frontend" class="semantic-sigil s-frontend" transform="translate(46 316) scale(0.6875)">
            <rect x="2" y="3" width="12" height="10" rx="2"/>
            <path d="M2 6.5h12"/>
            <circle cx="4.1" cy="4.8" r=".7" class="sigil-fill"/>
            <circle cx="6.3" cy="4.8" r=".7" class="sigil-fill"/>
          </g>
          <text data-node-label="" data-detail-anchor="" x="110" y="340" class="t-primary" font-size="11" font-weight="600" text-anchor="middle">애플리케이션</text>
        <text data-detail="context" x="110" y="356" class="t-muted" font-size="9" text-anchor="middle">드라이버</text>
        </g>

        <!-- Connection labels -->
        <g data-detail="context" data-edge-from="ca" data-edge-to="membercert" data-edge-label="서명" data-edge-key="0">
          <rect x="215" y="134.5" width="30" height="14" rx="3" class="c-mask"/>
          <text x="230" y="144.5" class="t-security" font-size="8" text-anchor="middle">서명</text>
        </g>
        <g data-detail="context" data-edge-from="ca" data-edge-to="clientcert" data-edge-label="서명" data-edge-key="1">
          <rect x="222.5" y="259.5" width="30" height="14" rx="3" class="c-mask"/>
          <text x="237.5" y="269.5" class="t-security" font-size="8" text-anchor="middle">서명</text>
        </g>
        <g data-detail="context" data-edge-from="app" data-edge-to="clientcert" data-edge-label="제시" data-edge-key="2">
          <rect x="215" y="322" width="30" height="14" rx="3" class="c-mask"/>
          <text x="230" y="332" class="t-muted" font-size="8" text-anchor="middle">제시</text>
        </g>
        <g data-detail="context" data-edge-from="membercert" data-edge-to="rs" data-edge-label="멤버 인증" data-edge-key="3">
          <rect x="478.4" y="131" width="53.199999999999996" height="14" rx="3" class="c-mask"/>
          <text x="505" y="141" class="t-muted" font-size="8" text-anchor="middle">멤버 인증</text>
        </g>
        <g data-detail="context" data-edge-from="clientcert" data-edge-to="rs" data-edge-label="클라이언트 인증" data-edge-key="4">
          <rect x="464" y="263" width="82" height="14" rx="3" class="c-mask"/>
          <text x="505" y="273" class="t-backend" font-size="8" text-anchor="middle">클라이언트 인증</text>
        </g>

        <!-- Boundary labels (foreground masks keep routes out of titles) -->
        <g data-graph-role="structural-frame-label" data-composition-frame-id="0" data-composition-frame-kind="security-group" data-composition-frame-label="멤버 자격 — 같은 CA 가 서명하고 O · OU · DC 조합이 일치해야 한다">
          <rect data-graph-role="structural-frame-label-mask" x="254" y="40" width="355.59999999999997" height="16" rx="3" class="c-mask"/>
          <text data-boundary-label="" x="258" y="53" class="t-security" font-size="9" font-weight="600">멤버 자격 — 같은 CA 가 서명하고 O · OU · DC 조합이 일치해야 한다</text>
        </g>

        <!-- Legend -->
        <g data-legend="" data-legend-bridge="">
          <text x="40" y="406" class="t-primary" font-size="12" font-weight="650">범례</text>
          <g data-legend-semantic-kind="frontend" data-legend-kind="frontend" data-legend-label="클라이언트" data-legend-x="40" data-legend-baseline="426" data-legend-width="93">
            <rect x="40" y="417" width="16" height="10" rx="2.5" class="c-frontend" stroke-width="1"/>
            <text x="62" y="426" class="t-muted" font-size="10" font-weight="500">클라이언트</text>
          </g>
          <g data-legend-semantic-kind="database" data-legend-kind="database" data-legend-label="복제 셋 멤버" data-legend-x="155" data-legend-baseline="426" data-legend-width="103">
            <rect x="155" y="417" width="16" height="10" rx="2.5" class="c-database" stroke-width="1"/>
            <text x="177" y="426" class="t-muted" font-size="10" font-weight="500">복제 셋 멤버</text>
          </g>
          <g data-legend-semantic-kind="security" data-legend-kind="security" data-legend-label="인증기관·인증서" data-legend-x="280" data-legend-baseline="426" data-legend-width="118">
            <rect x="280" y="417" width="16" height="10" rx="2.5" class="c-security" stroke-width="1"/>
            <text x="302" y="426" class="t-muted" font-size="10" font-weight="500">인증기관·인증서</text>
          </g>
        </g>
      </svg>
